# xmcd
#
# Track frame offsets: 
#        150
#        11605
#        25380
#        40497
#        57825
#        80110
#        92545
#        115358
#        129893
#        139910
#        156058
#        166206
#        180794
#        206594
#        220395
#
# Disc length: 3337 seconds
#
# Revision: 0
# Processed by: cddbd v1.5.1PL2 Copyright (c) Steve Scherf et al.
# Submitted via: ExactAudioCopy v0.95b4
#
DISCID=c70d070f
DTITLE=The Naturals - Best Of...
DYEAR=1998
DGENRE=Country
TTITLE0=Ride
TTITLE1=Aurelia
TTITLE2=In This Land
TTITLE3=Phonecall
TTITLE4=Wrong Side of Town
TTITLE5=I O U Nothing But the Blues
TTITLE6=Old River
TTITLE7=Mama
TTITLE8=A Thing Called Love
TTITLE9=Peace in the Valley
TTITLE10=What I got
TTITLE11=Sliding down
TTITLE12=Mandolin Winds
TTITLE13=She Wants Love
TTITLE14=Too Hot
EXTD=
EXTT0=
EXTT1=
EXTT2=
EXTT3=
EXTT4=
EXTT5=
EXTT6=
EXTT7=
EXTT8=
EXTT9=
EXTT10=
EXTT11=
EXTT12=
EXTT13=
EXTT14=
PLAYORDER=
